<?xml version="1.0" encoding="UTF-8" standalone="no"?>
<!-- Created with Inkscape (http://www.inkscape.org/) -->

<svg
   version="1.1"
   id="svg1"
   width="1024"
   height="1024"
   viewBox="0 0 1024 1024"
   sodipodi:docname="darkhouselogo1.svg"
   inkscape:version="1.4.3 (0d15f75042, 2025-12-25)"
   xmlns:inkscape="http://www.inkscape.org/namespaces/inkscape"
   xmlns:sodipodi="http://sodipodi.sourceforge.net/DTD/sodipodi-0.dtd"
   xmlns="http://www.w3.org/2000/svg"
   xmlns:svg="http://www.w3.org/2000/svg">
  <defs
     id="defs1" />
  <sodipodi:namedview
     id="namedview1"
     pagecolor="#ffffff"
     bordercolor="#000000"
     borderopacity="0.25"
     inkscape:showpageshadow="2"
     inkscape:pageopacity="0.0"
     inkscape:pagecheckerboard="0"
     inkscape:deskcolor="#d1d1d1"
     inkscape:zoom="0.76367188"
     inkscape:cx="513.30946"
     inkscape:cy="512"
     inkscape:window-width="1920"
     inkscape:window-height="1003"
     inkscape:window-x="0"
     inkscape:window-y="40"
     inkscape:window-maximized="1"
     inkscape:current-layer="g1" />
  <g
     inkscape:groupmode="layer"
     inkscape:label="Image"
     id="g1">
    <path
       style="fill:#000000"
       d="m 563.31945,841.15538 c 0.3143,-2.0625 1.0635,-8.47215 1.6649,-14.24367 1.0992,-10.54845 1.4142,-11.865 2.5635,-10.71569 0.5796,0.5796 -1.1489,21.40884 -2.1957,26.45936 -0.8146,3.92972 -2.6533,2.57283 -2.0327,-1.5 z m 49.3469,-3.85758 c -0.8691,-1.40627 -6.7425,-17.59461 -6.7425,-18.58382 0,-0.44473 0.3948,-0.8086 0.8774,-0.8086 1.1415,0 7.4561,17.49963 6.9079,19.14412 -0.26,0.77992 -0.6559,0.8742 -1.0428,0.2483 z m -101.7425,-14.21482 c 0,-1.48258 13.8112,-20.30456 14.6662,-19.98715 1.2418,0.46101 0.8605,1.14481 -6.351,11.38875 -6.008,8.53424 -8.3152,10.92007 -8.3152,8.5984 z m 136.5,-13.86717 c -11.5349,-12.07679 -13.6727,-14.74214 -11.3517,-14.15334 1.8117,0.45961 23.8517,23.30846 23.8517,24.72705 0,2.18483 -1.6346,0.80215 -12.5,-10.57371 z m -17.9113,1.93957 c -6.2502,-10.24917 -6.6618,-11.08678 -5.7307,-11.66222 0.8249,-0.50981 10.142,13.95929 10.142,15.75011 0,1.84902 -1.8183,0.16396 -4.4113,-4.08789 z m -81.4359,-4.40729 -9.3472,-2.99824 0.6685,-7.67223 0.6686,-7.67224 -4.3214,-3.58783 c -7.5972,-6.30764 -7.6819,-6.33253 -13.6083,-3.99633 -2.9079,1.14629 -6.0579,2.08022 -7,2.07541 -1.804,-0.009 -8.4315,-9.45651 -10.5174,-14.99219 -1.166,-3.09435 -1.0674,-3.28843 3.9804,-7.836 l 5.176,-4.66306 -2.0358,-8.06055 -2.0359,-8.06055 -7.0173,-2.38903 -7.0173,-2.38902 0.638,-7.55043 c 1.1459,-13.5628 1.043,-13.41381 9.9626,-14.4228 l 7.7119,-0.87239 2.7209,-5.59906 c 2.6319,-5.41593 18.8797,-23.15617 21.2081,-23.15617 1.8373,0 1.0606,1.56133 -2.4872,5 -4.1606,4.03264 -4.5085,6.70878 -0.9869,7.59264 l 2.5131,0.63074 -3.5402,4.63831 c -3.9966,5.23627 -9.486,15.35927 -9.486,17.49316 0,0.77654 -0.9,1.64724 -2,1.9349 -1.5891,0.41556 -2,1.36401 -2,4.61663 0,3.49711 0.3072,4.09362 2.1084,4.09362 1.667,0 2.0044,0.47102 1.6116,2.25 -0.2732,1.2375 -0.1571,4.5 0.258,7.25 l 0.7548,5 0.1336,-6.75 c 0.1044,-5.27395 0.4616,-6.75 1.6336,-6.75 1.0208,0 1.5076,-1.03833 1.5237,-3.25 0.049,-6.66082 9.4676,-24.61226 12.7825,-24.362 0.8615,0.065 3.4428,-3.27566 6.156,-7.967 2.5697,-4.44346 8.8656,-14.4049 13.9908,-22.13654 9.1056,-13.73645 9.412,-14.07008 13.4134,-14.60678 4.8462,-0.65001 5.0896,-0.36058 6.6499,7.90871 1.1707,6.20453 1.1879,6.22759 5.4252,7.29456 2.3379,0.58869 6.2325,1.93269 8.6546,2.98668 l 4.4039,1.91633 5.1314,-4.99066 c 4.7245,-4.59502 5.3191,-4.89242 7.5,-3.75151 4.3724,2.2874 14.8686,11.29221 14.8686,12.75595 0,0.79669 -1.4135,4.01973 -3.1412,7.1623 l -3.1411,5.71378 4.8911,8.05162 4.8912,8.05161 7.1827,0.37751 c 3.9505,0.20763 7.5075,0.70229 7.9044,1.09924 0.9362,0.93616 3.3286,13.30441 3.3761,17.45385 0.036,3.11326 -0.1689,3.26893 -6.9541,5.28964 -5.5826,1.66256 -7.0748,2.52725 -7.4075,4.29234 -0.2291,1.21571 -0.9082,4.6072 -1.5091,7.53666 -1.5882,7.74273 -1.5921,7.7317 4.4075,12.26146 3.025,2.2839 5.4919,4.88598 5.4819,5.7824 -0.028,2.49943 -8.8755,17.12985 -10.3594,17.12985 -0.7202,0 -3.8875,-0.88701 -7.0386,-1.97113 l -5.7292,-1.97113 -6.4375,5.15869 c -6.2681,5.02295 -6.4181,5.25242 -5.7008,8.72113 0.4052,1.95934 0.7473,5.35055 0.7602,7.53602 l 0.023,3.97359 -6.8111,2.74814 c -10.7974,4.35655 -11.3795,4.26155 -15.5795,-2.54274 l -3.6094,-5.84744 -8.6764,-0.19473 -8.6764,-0.19474 -2.2443,4.79166 c -3.749,8.00429 -4.0008,8.08339 -14.7501,4.63539 z m 0.8472,-6.34271 c 0,-0.825 -0.675,-1.5 -1.5,-1.5 -0.825,0 -1.5,0.675 -1.5,1.5 0,0.825 0.675,1.5 1.5,1.5 0.825,0 1.5,-0.675 1.5,-1.5 z m 8.5,-2.5 c 0,-0.80994 -0.7875,-1.62427 -1.75,-1.80963 -1.2278,-0.23646 -1.75,0.30348 -1.75,1.80963 0,1.50615 0.5222,2.04609 1.75,1.80963 0.9625,-0.18536 1.75,-0.99969 1.75,-1.80963 z m -6.4472,-1.5 c -0.078,-1.48429 -2.3156,-1.2116 -2.8346,0.3455 -0.2804,0.84112 0.1767,1.21599 1.2195,1 0.9174,-0.19002 1.6442,-0.7955 1.6151,-1.3455 z m 37.0157,-14.08253 c 2.9873,-0.87039 7.7754,-2.88873 10.6401,-4.48519 4.7005,-2.61952 5.2998,-2.73974 6.1433,-1.23251 0.8713,1.55706 1.1111,1.55449 3.5414,-0.0379 1.4337,-0.9394 2.6067,-2.19538 2.6067,-2.79105 0,-1.83889 -6.117,-8.91658 -7.1529,-8.27633 -0.581,0.35905 -0.3426,1.30546 0.5878,2.3335 1.5974,1.7651 2.1038,4.07198 0.8938,4.07198 -0.3691,0 -1.4969,-0.74724 -2.5061,-1.66054 -2.2369,-2.02436 -3.6394,-1.02855 -1.7528,1.24459 1.1611,1.39909 1.0743,1.84691 -0.6075,3.13352 -3.504,2.68053 -11.8454,6.21733 -16.2054,6.87116 -2.3413,0.3511 -4.2569,1.03726 -4.2569,1.52481 0,1.26769 1.8874,1.10486 8.0685,-0.69607 z m 17.4163,-7.44214 c -0.4076,-0.65942 -0.1209,-1.5842 0.6371,-2.05509 1.663,-1.03315 2.5595,0.79835 1.1035,2.25439 -0.6662,0.66618 -1.2468,0.5997 -1.7406,-0.1993 z m -53.963,5.32569 c 1.1132,-1.52234 1.671,-1.55751 5.3653,-0.3383 5.8777,1.93984 6.3138,0.48095 0.5896,-1.97272 -3.6578,-1.56791 -4.5281,-2.33864 -3.6416,-3.22513 0.6407,-0.64068 1.1499,-1.86237 1.1316,-2.71487 -0.025,-1.16282 -0.5021,-0.98796 -1.9103,0.7 -2.7111,3.24985 -4.3586,2.90242 -3.5564,-0.75 0.9518,-4.3333 -1.0627,-3.77743 -3.4797,0.96016 -2.5735,5.04463 -2.5563,5.21419 0.7315,7.19841 3.5305,2.13071 3.3208,2.12445 4.77,0.14245 z m -4.0629,-2.36755 c -0.3625,-0.58659 -0.419,-1.30665 -0.1256,-1.60014 0.7164,-0.71631 2.6667,0.54583 2.6667,1.72569 0,1.27797 -1.7264,1.19267 -2.5411,-0.12555 z m 23.0983,-9.54466 c 0.5289,-4.23381 0.369,-5.8164 -0.6517,-6.44721 -1.9953,-1.23316 -2.8728,0.83389 -2.8902,6.8084 -0.011,3.88958 0.3548,5.25 1.4127,5.25 0.9845,0 1.6459,-1.74308 2.1292,-5.61119 z m 19.2698,2.09012 c 2.9396,-1.34581 7.1111,-3.84583 9.2698,-5.5556 l 3.925,-3.10868 -2.6526,-3.15732 c -4.882,-5.81096 -5.4933,-5.92915 -10.8751,-2.10283 -2.9764,2.1162 -7.0756,3.9003 -10.6645,4.64156 l -5.8296,1.20409 v 5.93761 5.9376 l 5.7411,-0.67475 c 3.1576,-0.37112 8.1463,-1.77587 11.0859,-3.12168 z m -24.9453,-6.18214 c 0.1051,-2.84583 -0.3559,-3.4152 -4.1317,-5.10338 -3.9426,-1.76275 -8.8738,-6.08179 -12.0773,-10.57809 -1.2407,-1.7414 -1.7355,-1.78405 -6.5078,-0.56095 -2.8407,0.72805 -5.1649,1.84614 -5.1649,2.48464 0,1.81987 5.2487,8.57982 9.9408,12.80296 2.3477,2.11308 7.034,5.15281 10.4139,6.75496 l 6.1453,2.91299 0.6317,-2.75496 c 0.3474,-1.51523 0.6849,-4.1964 0.75,-5.95817 z m 45.3319,-16.29679 c 6.0327,-17.35887 0.042,-37.3087 -14.1885,-47.25068 -20.818,-14.54409 -48.7375,-7.37479 -59.3908,15.25068 -2.5534,5.42276 -3.1279,8.033 -3.4667,15.75 -0.2703,6.15677 -0.048,9.25 0.6639,9.25 0.5885,0 3.2918,-0.47648 6.0073,-1.05885 l 4.9372,-1.05885 0.037,-6.37695 c 0.084,-14.61371 10.9146,-26.07161 25.7707,-27.26411 8.2375,-0.66124 14.9677,1.6506 21.2509,7.29981 9.2118,8.28219 12.2552,21.87976 7.3494,32.83607 -1.2011,2.68241 -2.1838,5.04362 -2.1838,5.24712 0,0.2035 1.6591,2.2064 3.6869,4.4509 l 3.6868,4.0809 1.7905,-2.32802 c 0.9847,-1.28041 2.8069,-5.25302 4.0494,-8.82802 z m -24.6743,6.47469 c 2.6404,-1.63608 5.0097,-3.60625 5.2652,-4.37816 0.2555,-0.77191 -1.1701,-0.1567 -3.168,1.36714 -7.7007,5.87362 -16.0366,6.96025 -24.2074,3.15556 -8.157,-3.79831 -13.4291,-11.8405 -13.4291,-20.48525 0,-1.72369 -0.4053,-3.13398 -0.9007,-3.13398 -1.2327,0 -0.2667,8.35501 1.4376,12.43405 5.5569,13.29957 22.6539,18.69238 35.0024,11.04064 z m -57.3583,-3.94685 c -1.6828,-4.28268 -2.9048,-6.17636 -3.6121,-5.59777 -0.5879,0.48091 -2.9814,1.38573 -5.3189,2.0107 -2.3375,0.62498 -4.25,1.62146 -4.25,2.21441 0,0.64118 0.9118,0.81843 2.25,0.43738 7.4114,-2.11044 7.4297,-2.10509 9.6,2.8012 3.1118,7.03487 4.2188,5.4831 1.331,-1.86592 z m 90.2662,2.38675 c -0.322,-0.52097 -1.0116,-0.68378 -1.5326,-0.3618 -0.521,0.32197 -0.6838,1.01165 -0.3618,1.53262 0.322,0.52097 1.0116,0.68378 1.5326,0.3618 0.521,-0.32197 0.6838,-1.01165 0.3618,-1.53262 z m -39.422,-0.0403 c 2.0665,-0.61913 5.0437,-2.19623 6.616,-3.50466 2.7269,-2.26923 2.6101,-2.25348 -2.5334,0.34145 -7.5109,3.78931 -14.6779,3.67529 -20.3553,-0.32386 -5.3578,-3.77397 -8.7317,-10.19633 -8.8228,-16.79451 -0.052,-3.76153 -0.2944,-4.56994 -0.9276,-3.09272 -1.8819,4.39019 1.455,13.76214 6.6563,18.69484 5.5775,5.28944 12.0838,6.86151 19.3668,4.67946 z m 15.9748,-8.75655 c 0,-1.13303 -0.3592,-1.02511 -1.4682,0.44113 -0.8075,1.06762 -1.4682,2.61613 -1.4682,3.44113 0,1.13303 0.3592,1.02511 1.4682,-0.44113 0.8075,-1.06762 1.4682,-2.61613 1.4682,-3.44113 z m 26.4827,3.13226 c 0.3832,-0.9625 0.9497,-5.29752 1.259,-9.63338 0.4672,-6.5494 0.8751,-7.96515 2.4103,-8.36663 1.3061,-0.34153 1.8435,-1.40215 1.8327,-3.61662 -0.019,-3.98031 -1.2096,-5.86804 -3.2145,-5.09869 -1.1579,0.44433 -1.8944,-0.39963 -2.8065,-3.21613 -1.8251,-5.63525 -5.8521,-13.31855 -6.9805,-13.31855 -1.337,0 -1.3626,-0.087 1.9379,6.59028 3.9177,7.92592 4.2594,10.81307 1.3289,11.22927 -3.0612,0.43476 -2.861,2.18045 0.25,2.18045 1.5556,0 2.5,0.56667 2.5,1.5 0,0.83333 -0.8889,1.5 -2,1.5 -1.1111,0 -2,0.66667 -2,1.5 0,0.95332 0.9591,1.5 2.6315,1.5 h 2.6315 l -0.5595,7.25 c -0.3077,3.9875 -0.8694,8.2625 -1.2481,9.5 -0.8127,2.65514 0.9921,3.10026 2.0273,0.5 z m 0.694,-21.91713 c 0.4865,-2.50877 2.8233,-2.85325 2.8233,-0.4162 0,1.22833 -0.6457,2.08333 -1.5733,2.08333 -0.9313,0 -1.4414,-0.68037 -1.25,-1.66713 z m -39.1689,18.89458 c 4.4675,-4.46749 6.2377,-9.75464 4.8945,-14.61921 -1.3285,-4.81135 -3.5487,-6.47413 -5.3518,-4.0082 -1.7726,2.42424 -3.3752,0.95015 -1.7668,-1.62522 1.0317,-1.65214 0.8593,-2.1626 -1.1821,-3.50023 -6.9014,-4.52197 -16.395,-1.41326 -20.4139,6.68463 -3.1929,6.43337 -2.2893,10.94126 3.3254,16.59078 4.0707,4.09602 4.4502,4.25 10.473,4.25 5.8946,0 6.4633,-0.21406 10.0217,-3.77255 z m -20.0078,-1.10501 c 0,-0.48265 0.7063,-1.46372 1.5695,-2.18014 0.8633,-0.71642 1.3554,-2.12152 1.0936,-3.12244 -0.5433,-2.07772 1.1347,-2.51043 1.9091,-0.49231 0.7823,2.03875 -1.334,6.67245 -3.0474,6.67245 -0.8387,0 -1.5248,-0.3949 -1.5248,-0.87756 z m 14.4988,-1.12431 c -0.6371,-1.03091 4.3797,-3.45297 5.2824,-2.55027 0.7694,0.76943 -1.8507,3.55214 -3.3446,3.55214 -0.7252,0 -1.5972,-0.45084 -1.9378,-1.00187 z m -5.934,-0.89335 c -0.6689,-1.08219 2.2375,-2.34501 3.5418,-1.53893 0.5093,0.31479 0.6671,0.99125 0.3507,1.50325 -0.7326,1.18535 -3.1682,1.20768 -3.8925,0.0357 z m 10.8352,-5.50478 c -0.3661,-0.95394 -0.1706,-2.22943 0.4344,-2.83443 0.8,-0.8 1.2816,-0.62698 1.7656,0.63443 0.3661,0.95394 0.1706,2.22943 -0.4344,2.83443 -0.8,0.8 -1.2815,0.62698 -1.7656,-0.63443 z m -17.8674,-1.54721 c -0.8792,-1.42264 0.242,-3.05279 2.0997,-3.05279 0.8762,0 1.3781,0.70256 1.191,1.66713 -0.3895,2.00847 -2.3861,2.84922 -3.2907,1.38566 z m 12.4674,-1.13612 c 0,-2.43705 2.3368,-2.09257 2.8233,0.4162 0.1914,0.98676 -0.3187,1.66713 -1.25,1.66713 -0.9276,0 -1.5733,-0.855 -1.5733,-2.08333 z m -5,-4.41667 c 0,-0.83333 0.8889,-1.5 2,-1.5 1.1111,0 2,0.66667 2,1.5 0,0.83333 -0.8889,1.5 -2,1.5 -1.1111,0 -2,-0.66667 -2,-1.5 z m -8.5342,-1.55528 c -0.3863,-0.62516 0.026,-1.86489 0.9159,-2.75497 1.4911,-1.4911 1.7512,-1.48542 3.3088,0.0721 1.8863,1.88632 1.7512,2.20055 -1.3563,3.15455 -1.2412,0.38104 -2.4658,0.17964 -2.8684,-0.47173 z m -20.3017,18.37246 c 3.3741,-0.67481 3.6622,-4.0418 0.2997,-3.50183 -6.4035,1.0283 -9.3565,2.3008 -8.7864,3.78632 0.4154,1.08265 1.3385,1.36016 3.0748,0.92439 1.3646,-0.3425 3.8,-0.88649 5.4119,-1.20888 z m 47.8206,-3.1262 c -0.013,-1.45727 -0.1493,-1.48367 -0.9847,-0.19098 -1.2656,1.95837 -1.2656,3.28218 0,2.5 0.55,-0.33992 0.9931,-1.37898 0.9847,-2.30902 z m 5.8156,-10.58565 c -0.4161,-5.01743 -4.3401,-14.60533 -5.9776,-14.60533 -1.255,0 -1.0049,0.82987 1.1427,3.79049 2.4416,3.36595 4.276,11.39953 3.4,14.88985 -0.492,1.96024 -0.3408,2.42248 0.6019,1.83987 0.8456,-0.52259 1.1191,-2.46482 0.833,-5.91488 z m -4.2691,-2.24571 c -0.7864,-5.24455 -6.0921,-11.85359 -11.2491,-14.01249 -4.1503,-1.73751 -12.4392,-1.72616 -16.6249,0.0227 -3.1285,1.3072 -10.6572,8.99888 -10.6572,10.88791 0,0.49376 1.4625,-1.00385 3.25,-3.32801 4.2917,-5.58019 8.8915,-7.92973 15.5242,-7.92973 10.172,0 17.5492,6.43577 18.8855,16.47546 0.3678,2.7635 0.8667,4.43391 1.1087,3.71203 0.242,-0.72188 0.1352,-3.34442 -0.2372,-5.82787 z m 49.8184,-4.1372 c -0.2877,-6.26588 -4.2689,-7.76133 -6.167,-2.31646 -1.324,3.79816 0.2223,6.29886 3.6498,5.90251 2.322,-0.2685 2.6481,-0.73316 2.5172,-3.58605 z m -4.6621,1.13175 c -1.471,-1.47104 -0.6974,-4.50273 1.0625,-4.1638 0.9625,0.18536 1.75,1.19336 1.75,2.23999 0,1.98954 -1.6311,3.10523 -2.8125,1.92381 z m -83.1875,-5.83436 c 1.65,-2.46171 3.3375,-4.48573 3.75,-4.49783 0.4125,-0.0121 0.7313,-0.58448 0.7084,-1.27198 -0.043,-1.29054 -6.3997,5.39579 -8.0809,8.5 -1.9504,3.60098 0.736,1.57639 3.6225,-2.73019 z m 34.5,-4.51981 c 0,-0.55 -0.1984,-1 -0.441,-1 -0.2425,0 -0.7191,0.45 -1.059,1 -0.3399,0.55 -0.1415,1 0.441,1 0.5824,0 1.059,-0.45 1.059,-1 z m -26.5,-2 c 0.3399,-0.55 0.1415,-1 -0.441,-1 -0.5824,0 -1.059,0.45 -1.059,1 0,0.55 0.1984,1 0.441,1 0.2425,0 0.7191,-0.45 1.059,-1 z m 22.0192,-0.56081 c -3.4605,-2.61563 -9.0205,-3.73195 -14.9178,-2.99513 -3.0807,0.38492 -5.6014,1.1478 -5.6014,1.69528 0,0.58032 0.9383,0.69328 2.25,0.27087 4.1577,-1.3389 13.4931,-0.82875 15.9327,0.87067 2.9233,2.03636 5.008,2.17761 2.3365,0.15831 z m 26.4808,-13.38425 c 0,-1.47786 -10.419,-9.59528 -15.4286,-12.02039 -2.4841,-1.20254 -5.0273,-1.87083 -5.6514,-1.48508 -0.6587,0.40705 1.3688,1.90301 4.8316,3.565 3.2816,1.575 7.9424,4.65011 10.3575,6.83357 4.4736,4.04471 5.8909,4.79219 5.8909,3.1069 z m -25,-13.05494 c 0,-0.55 -0.5625,-1.02682 -1.25,-1.05961 -0.6875,-0.0328 -3.4035,-0.41388 -6.0356,-0.84687 -4.7726,-0.78512 -7.8542,0.39925 -3.5053,1.34721 7.2294,1.57584 10.7909,1.76042 10.7909,0.55927 z m -16.5,-1 c 0.3399,-0.55 -0.3085,-1 -1.441,-1 -1.1324,0 -2.059,0.45 -2.059,1 0,0.55 0.6484,1 1.441,1 0.7925,0 1.7191,-0.45 2.059,-1 z m 87.2541,95.22133 c -2.6103,-1.49673 -4.7478,-3.30979 -4.75,-4.02902 0,-0.8759 1.6465,-0.38061 4.9949,1.5 2.7494,1.54423 4.9994,3.37019 5,4.05769 10e-4,1.57539 0.3414,1.67451 -5.2449,-1.52867 z m -3.0041,-23.88357 c -2.6125,-0.7997 -4.75,-1.87785 -4.75,-2.39588 0,-1.25108 0.4056,-1.21213 7.1844,0.6899 3.1986,0.89747 5.8156,2.02247 5.8156,2.5 0,1.18517 -2.6026,0.93468 -8.25,-0.79402 z m -179.75,-5.72113 c 0,-1.30921 1.141,-1.61663 6,-1.61663 3.3333,0 6,0.44444 6,1 0,0.55 -1.6875,1.00614 -3.75,1.01365 -2.0625,0.008 -4.7625,0.285 -6,0.61664 -1.6541,0.44329 -2.25,0.17484 -2.25,-1.01366 z m 206,-7.76184 c -7.7144,-1.06619 -9.3008,-1.55912 -8.6107,-2.67562 0.2838,-0.45922 4.9248,-0.2536 10.3134,0.45695 5.3885,0.71054 10.1348,1.3081 10.5473,1.32789 0.4125,0.0198 0.75,0.48599 0.75,1.03599 0,1.16043 -3.8655,1.11725 -13,-0.14521 z m -158,-18.85479 c 0,-1.33333 0.6667,-2 2,-2 1.3333,0 2,0.66667 2,2 0,1.33333 -0.6667,2 -2,2 -1.3333,0 -2,-0.66667 -2,-2 z m 3.6218,-4.80286 c -0.8063,-1.30463 6.0907,-14.6779 9.3931,-18.21307 4.3714,-4.67962 4.8424,-2.92639 0.7303,2.71893 -4.099,5.62753 -7.7452,12.57469 -7.7452,14.75716 0,1.62367 -1.536,2.09966 -2.3782,0.73698 z m 130.8077,-6.31121 c -0.6981,-1.12958 0.082,-1.40011 10.8276,-3.75377 4.9361,-1.0812 8.9999,-1.52543 9.3134,-1.01809 0.6981,1.12958 -0.082,1.40011 -10.8276,3.75377 -4.9361,1.0812 -8.9998,1.52543 -9.3134,1.01809 z m -186.332,-5.97965 c -5.9076,-3.94498 -11.0201,-9.94226 -13.0687,-15.33062 -1.7148,-4.51011 0.6701,-2.77082 3.7965,2.76876 3.3835,5.9952 7.5637,9.89887 13.8928,12.9738 2.355,1.14417 4.2819,2.44064 4.2819,2.88105 0,1.74212 -3.054,0.61245 -8.9025,-3.29299 z m 23.5998,-2.65628 c -0.2314,-0.4125 -0.7031,-1.93373 -1.0481,-3.38051 -1.0514,-4.40895 -6.3726,-4.19934 -7.8758,0.31024 -0.3142,0.94282 -1.1119,0.92269 -3.5561,-0.0897 -4.5375,-1.87949 -5.6153,-3.47984 -4.0412,-6.00037 1.1145,-1.78461 1.0021,-2.35584 -0.8223,-4.18025 -2.014,-2.01407 -2.2333,-2.03447 -4.6743,-0.43507 -2.5509,1.67146 -2.5692,1.66212 -4.6203,-2.35827 -2.6315,-5.1581 -2.5904,-5.76591 0.4408,-6.52669 4.2745,-1.07284 2.8148,-7.58936 -1.7,-7.58936 -2.1258,0 -2.1113,0.12188 -0.6685,-5.60776 1.0648,-4.22872 1.2963,-4.45719 3.9304,-3.87864 2.208,0.48496 3.0411,0.16241 3.9456,-1.52756 1.479,-2.76363 0.5279,-5.20126 -1.8729,-4.80005 -1.2591,0.21042 -3.2136,-1.33545 -5.9244,-4.68599 -2.225,-2.75 -8.5847,-10.4 -14.1327,-17 -15.8397,-18.84303 -21.0321,-30.82162 -21.0627,-48.59004 -0.024,-14.11287 5.1832,-29.54309 14.7157,-43.60382 9.5234,-14.04725 31.8319,-35.67262 64.2358,-62.26887 40.3278,-33.09995 52.9171,-45.98374 61.1078,-62.53727 11.1524,-22.5394 8.954,-36.81192 -9.6271,-62.5 -4.1772,-5.775 -9.4203,-13.54981 -11.6512,-17.27736 -3.8253,-6.39147 -3.9611,-6.88245 -2.386,-8.62292 1.5656,-1.73 1.5534,-1.87609 -0.1954,-2.3334 -2.7127,-0.7094 -7.0728,7.49439 -5.1893,9.76392 0.8677,1.04556 0.9598,1.88487 0.2812,2.56349 -1.1003,1.10025 -2.5588,-0.73027 -6.0618,-7.60802 -2.0125,-3.95124 -2.0148,-4.05115 -0.1446,-6.36079 3.4908,-4.31096 1.7338,-13.75075 -3.2958,-17.70702 -1.341,-1.05484 -2.4821,-2.31759 -2.5357,-2.8061 -0.1741,-1.58526 -2.6858,-2.58084 -6.5506,-2.59649 -2.9798,-0.0121 -3.9741,-0.49268 -4.6866,-2.26531 -0.8694,-2.16277 -0.9069,-2.14338 -0.9678,0.5 -0.058,2.51977 0.2506,2.75128 3.6866,2.76531 2.0625,0.008 4.425,0.45153 5.25,0.98469 1.1089,0.71662 0.4742,0.97337 -2.4343,0.98469 -5.1943,0.0202 -11.6863,3.25667 -13.8375,6.89836 -3.6465,6.17298 -1.0944,15.32484 5.1779,18.5684 3.786,1.95783 9.7495,1.97661 13.4582,0.0424 1.5754,-0.82161 2.9934,-1.49384 3.1512,-1.49384 0.1578,0 1.1728,1.50135 2.2554,3.33634 1.0827,1.83499 2.7469,4.52426 3.6982,5.97616 1.6986,2.59239 1.6831,2.66105 -0.8656,3.82232 -2.1506,0.97988 -2.9105,0.89734 -4.4343,-0.4817 -1.5169,-1.37277 -2.3932,-1.47099 -5.0041,-0.56084 -2.5729,0.89694 -3.1651,1.64633 -3.1651,4.00555 0,2.61038 -0.3268,2.9008 -3.25,2.88852 -6.2373,-0.0262 -7.9175,-0.94709 -7.2525,-3.97493 0.5163,-2.35075 0.1736,-2.90503 -2.4746,-4.00194 -2.6205,-1.08545 -3.3344,-1.03756 -4.8397,0.32469 -1.6227,1.46855 -2.0255,1.43993 -4.9744,-0.35341 -3.2623,-1.98387 -4.1073,-4.68221 -2.0963,-6.69326 0.759,-0.75897 0.811,-2.0142 0.1638,-3.95 -0.7948,-2.37729 -1.5023,-2.8375 -4.3625,-2.8375 -3.407,0 -3.4144,-0.0103 -3.7136,-5.17877 -0.2902,-5.0127 -0.21,-5.18908 2.5,-5.5 2.2365,-0.2566 2.8651,-0.89163 3.1244,-3.15641 0.2095,-1.82918 -0.2938,-3.28739 -1.4183,-4.10965 -1.6419,-1.20062 -1.6166,-1.47888 0.4375,-4.8024 3.2482,-5.25571 5.116,-6.57608 6.3027,-4.45553 1.2389,2.21392 2.7878,2.10704 5.8005,-0.40029 2.0717,-1.72425 2.2634,-2.33041 1.25,-3.95317 -0.6584,-1.05418 -1.197,-2.17254 -1.197,-2.48527 0,-1.25831 11.2704,-5.44862 14.2785,-5.30871 3.0245,0.14067 3.0534,0.17531 0.4715,0.56642 -2.0548,0.31129 -2.75,0.9812 -2.75,2.65017 0,3.02351 1.825,4.63358 5.252,4.63358 2.2645,0 3.0657,-0.61284 3.8891,-2.97488 l 1.037,-2.97489 4.161,2.09781 c 2.2885,1.15379 4.286,2.20508 4.4389,2.33619 0.1529,0.13112 -0.1878,1.46356 -0.7572,2.961 -0.8841,2.32533 -0.7057,2.99239 1.2221,4.57156 2.0059,1.64321 2.5036,1.68952 4.4719,0.41609 3.005,-1.94404 2.977,-1.95734 5.2487,2.49552 l 2.0041,3.9284 -2.5078,1.82677 c -2.1008,1.53037 -2.4024,2.35327 -1.8588,5.0716 0.4969,2.48429 1.1666,3.24483 2.8573,3.24483 3.1626,0 3.3948,0.552 2.3309,5.54048 -1.0936,5.1273 -1.7416,4.0873 15.2414,24.45952 17.8097,21.36378 22.6418,29.24733 25.5898,41.74998 2.0877,8.85424 1.3675,24.3912 -1.5094,32.56289 -9.1557,26.00572 -27.175,45.88783 -83.111,91.70275 -39.2921,32.18262 -52.1107,46.8 -58.125,66.28139 -1.738,5.62986 -2.018,8.54901 -1.6301,17 0.2819,6.14526 1.2096,12.39034 2.3326,15.70299 1.0463,3.08649 6.8329,12.92229 13.1867,22.41424 8.3256,12.43743 10.98,17.12587 10.0291,17.71384 -1.0269,0.63487 -0.9618,1.13116 0.3157,2.40906 1.4789,1.47926 1.8429,1.40691 4.5,-0.89427 2.3201,-2.0093 2.6442,-2.75446 1.641,-3.77331 -2.034,-2.06583 -1.4525,-3.77547 2,-5.88052 4.3665,-2.66229 5.2885,-2.51747 6.7718,1.06357 1.7277,4.17101 5.9827,3.8541 7.4197,-0.55261 0.538,-1.65 1.0483,-3.12696 1.1338,-3.28214 0.086,-0.15518 2.232,0.27319 4.7697,0.95193 4.6032,1.23117 4.6127,1.24276 4.0232,4.9294 -0.5219,3.26366 -0.3151,3.77818 1.7704,4.40457 1.2988,0.39008 3.0872,1.62603 3.9742,2.74656 1.7061,2.15525 3.8872,1.65999 3.8872,-0.88266 0,-3.0139 3.5331,-0.80197 5.754,3.60231 l 2.254,4.46997 -2.504,1.31197 c -2.6983,1.41378 -3.0225,2.75417 -1.5822,6.54235 0.5964,1.56863 1.9896,2.63802 3.9468,3.02946 l 3.0251,0.60501 -1.2665,4.28564 c -1.1715,3.9646 -1.502,4.26697 -4.4121,4.03653 -4.2997,-0.34048 -6.0891,2.76624 -3.6965,6.41784 1.6025,2.44576 1.5634,2.63623 -1.116,5.43294 -3.0671,3.20134 -5.1629,3.68647 -6.041,1.39832 -0.3166,-0.825 -1.3906,-1.5 -2.3868,-1.5 -3.6718,0 -4.9748,1.17393 -4.9748,4.48199 0,2.86017 -0.39,3.34601 -3.125,3.89301 -4.1018,0.82035 -5.6651,0.78872 -6.1777,-0.125 z m 4.8027,-11.25 c 0.3399,-0.55 0.1415,-1 -0.441,-1 -0.5824,0 -1.059,0.45 -1.059,1 0,0.55 0.1984,1 0.441,1 0.2425,0 0.7191,-0.45 1.059,-1 z m 14.5,-1 c -0.5887,-1.1 -1.5045,-2 -2.0352,-2 -0.5306,0 -0.9648,-0.65428 -0.9648,-1.45396 0,-1.12331 -0.765,-0.95274 -3.3638,0.75 -3.5595,2.33214 -3.2465,3.63616 0.4038,1.68256 1.8109,-0.96918 2.3818,-0.82138 3.6121,0.93514 1.8994,2.71175 3.7902,2.78121 2.3479,0.0863 z m -23.0006,-0.75 c -5e-4,-1.47333 0.7691,-1.69662 4.8681,-1.41238 6.2075,0.43045 12.102,-2.43417 15.1471,-7.36126 4.7327,-7.65761 1.5511,-19.71452 -6.2646,-23.74068 -2.0625,-1.06247 -3.75,-2.33764 -3.75,-2.83372 0,-0.49608 -0.4766,-0.90196 -1.059,-0.90196 -0.5825,0 -0.7964,0.42489 -0.4755,0.94421 1.0369,1.67767 -8.8226,1.73169 -10.1837,0.0558 -0.7794,-0.95965 -1.2296,-1.07097 -1.25,-0.30902 -0.017,0.65504 0.4556,1.49221 1.0513,1.86037 0.647,0.39986 -0.09,1.3827 -1.83,2.44096 -4.342,2.64047 -6.6158,8.20479 -5.9578,14.57951 0.6101,5.91191 2.5424,9.46817 6.2113,11.43172 2.7371,1.46484 3.3682,3.99646 0.9963,3.99646 -2.1894,0 -9.0714,-6.54416 -10.4941,-9.97884 -0.6737,-1.62648 -1.0519,-4.77163 -0.8405,-6.9892 0.2553,-2.67624 -0.018,-4.03197 -0.8115,-4.03197 -1.2831,0 -1.2125,6.61904 0.1178,11.05455 0.8615,2.87222 9.0558,10.94545 11.1095,10.94545 0.7788,0 1.4159,0.45 1.4159,1 0,0.55 0.45,1 1,1 0.55,0 0.9997,-0.7875 0.9994,-1.75 z m 3.0006,-3.61408 c 0,-1.17822 0.9093,-1.63697 3.25,-1.63966 3.7957,-0.004 9.1378,-2.98387 10.7496,-5.99549 1.8277,-3.41512 1.4298,-9.56987 -0.8579,-13.27157 -2.4717,-3.99922 -5.8095,-5.7292 -11.0539,-5.7292 -9.8791,0 -14.5417,12.74172 -7.3929,20.20339 2.7066,2.82511 2.6349,4.52088 -0.146,3.45373 -2.8596,-1.09733 -5.5412,-6.91938 -5.5452,-12.03909 -0.01,-8.71626 5.882,-14.61803 14.5856,-14.61803 10.625,0 18.1609,14.33729 12.4547,23.69567 -2.5974,4.25982 -5.7097,6.1597 -11.359,6.93402 -3.9325,0.53901 -4.685,0.37939 -4.685,-0.99377 z m 1,-7.5423 c 0,-0.49851 -0.8474,-0.68479 -1.883,-0.41396 -2.6105,0.68266 -5.117,-3.21039 -5.117,-7.94762 0,-7.97588 9.383,-11.81353 15.354,-6.27979 3.831,3.55043 3.5654,7.82831 -0.754,12.14775 -3.144,3.14403 -7.6,4.60607 -7.6,2.49362 z m 6.5455,-3.54817 c 2.9986,-2.99863 3.1037,-5.45043 0.3819,-8.91059 -3.8386,-4.88006 -11.9274,-2.22802 -11.9274,3.91059 0,3.07716 4.1105,7.45455 7,7.45455 1.15,0 3.1955,-1.10455 4.5455,-2.45455 z m 15.4545,-0.10447 c 0,-0.85746 -0.45,-1.2809 -1,-0.94098 -0.55,0.33992 -1,1.04148 -1,1.55902 0,0.51754 0.45,0.94098 1,0.94098 0.55,0 1,-0.70156 1,-1.55902 z m -1,-7.44098 c 0,-0.55 -0.4766,-1 -1.059,-1 -0.5825,0 -0.7809,0.45 -0.441,1 0.3399,0.55 0.8165,1 1.059,1 0.2426,0 0.441,-0.45 0.441,-1 z m 13.75,-332.56876 c 4.715,-1.92836 3.988,-2.45345 -1,-0.72222 -5.3259,1.84853 -11.6537,1.20779 -15.563,-1.57589 -3.2044,-2.28173 -4.187,-2.59824 -4.187,-1.34874 0,1.24793 5.4342,4.12073 9.6432,5.09785 4.0611,0.94281 5.8134,0.7139 11.1068,-1.451 z m 10.7243,-8.38158 c 1.7478,-3.37973 1.9873,-5.45298 0.5257,-4.54966 -0.55,0.33992 -1,1.34354 -1,2.23028 0,0.88673 -0.7447,2.43517 -1.655,3.44098 -0.9488,1.04843 -1.1731,1.82874 -0.5257,1.82874 0.6212,0 1.8159,-1.32765 2.655,-2.95034 z m -33.2028,-0.65448 c -0.7342,-1.80352 -3.2715,-3.14057 -3.2715,-1.72392 0,0.92683 3.2366,4.42545 3.682,3.98005 0.1985,-0.19852 0.014,-1.21378 -0.4105,-2.25613 z m 1.5142,-15.33133 c 1.044,-1.41012 3.3859,-3.57635 5.2041,-4.81385 1.9236,-1.3092 2.649,-2.25 1.7348,-2.25 -2.4127,0 -7.837,5.02478 -9.3606,8.67119 -0.7502,1.79551 -1.3111,4.96653 -1.2464,7.04669 0.1125,3.61522 0.1541,3.5643 0.9438,-1.15403 0.4543,-2.71488 1.6803,-6.08988 2.7243,-7.5 z m -5.4906,6.18615 c 0.5047,-2.62696 0.1814,-4.05987 -0.7138,-3.16462 -1.0466,1.04662 -1.7102,5.91462 -0.8063,5.91462 0.5455,0 1.2296,-1.2375 1.5201,-2.75 z m 35.829,-7.51667 c -0.9876,-0.98026 -1.1025,-0.8654 -0.5598,0.5598 0.3755,0.98622 0.9347,1.54122 1.2426,1.23333 0.3079,-0.30789 6e-4,-1.11479 -0.6828,-1.79313 z m -3.1241,-4.1619 c 0,-0.86206 -3.1727,-3.57143 -4.1822,-3.57143 -0.5717,0 0.023,0.88503 1.3214,1.96673 2.5053,2.08712 2.8608,2.28653 2.8608,1.6047 z m -65.5991,393.23044 c -4.3466,-4.00651 -8.0616,-9.47451 -7.0943,-10.4418 0.2497,-0.24974 2.1038,1.79326 4.12,4.53999 2.0163,2.74673 5.2202,5.95458 7.1197,7.12856 3.8095,2.35438 4.2105,2.97138 1.9314,2.97138 -0.8373,0 -3.5719,-1.88916 -6.0768,-4.19813 z M 637.92385,693.92 c 0,-0.9295 31.4744,-22.49196 34.5589,-23.6756 0.7926,-0.30415 1.4411,-0.12616 1.4411,0.39552 0,0.84678 -34.2566,24.26546 -35.4953,24.26546 -0.2776,0 -0.5047,-0.44342 -0.5047,-0.98538 z m -91.6133,-11.31273 c 0.7887,-6.43351 4.2418,-14.79369 12.0643,-29.20851 13.283,-24.47733 17.6908,-37.82994 17.8233,-53.99338 0.1222,-14.8964 -3.5817,-25.49598 -13.8026,-39.5 -5.269,-7.21915 -24.864,-26.87466 -34.9501,-35.05794 -3.5869,-2.9102 -6.5216,-5.59398 -6.5216,-5.96395 0,-0.8681 17.902,-15.97811 18.9305,-15.97811 0.4282,0 8.1678,7.5375 17.1992,16.75 29.2805,29.86759 37.8133,46.86242 36.6482,72.99305 -0.8363,18.75609 -6.3048,31.33803 -27.0585,62.25695 -7.1989,10.725 -14.8511,22.425 -17.0049,26 l -3.916,6.5 z m 88.2819,-1.4291 c -0.7471,-1.20888 10.7787,-12.62371 12.2509,-12.13296 0.6183,0.20609 -1.7561,3.22932 -5.2763,6.71829 -3.5203,3.48896 -6.6589,5.92557 -6.9746,5.41467 z m -101.5826,-13.05501 c -0.073,-4.51825 -0.4114,-5.40522 -2.336,-6.13259 -2.645,-0.99966 -4.0659,-0.43308 -3.0944,1.23391 0.3785,0.64949 -0.3308,0.28593 -1.5763,-0.80791 -5.0436,-4.42951 -4.7621,-7.45915 0.6964,-7.49588 2.1644,-0.0146 2.2052,-0.14975 0.8353,-2.76531 -2.2023,-4.20476 -7.594,-8.91919 -12.861,-11.24557 -4.8108,-2.12489 -6.7117,-4.74433 -2.5,-3.44513 6.3946,1.97259 16.7577,10.73887 18.2488,15.43695 0.5612,1.76823 1.5096,2.00375 8.0686,2.00375 4.0879,0 7.4326,0.20973 7.4326,0.46607 0,0.25634 -0.7583,2.05634 -1.6852,4 -1.5462,3.24239 -2.0428,3.53393 -6.0191,3.53393 -3.9853,0 -4.291,0.18091 -3.8016,2.25 0.2927,1.2375 0.115,3.6 -0.395,5.25 -0.8411,2.72161 -0.9352,2.50983 -1.0131,-2.28222 z m -6.086,2.28222 c 0,-0.825 0.45,-1.5 1,-1.5 0.55,0 1,0.675 1,1.5 0,0.825 -0.45,1.5 -1,1.5 -0.55,0 -1,-0.675 -1,-1.5 z m 99,-8.01199 c 0,-1.49053 9.3981,-14.36 10.1481,-13.89647 0.4865,0.30066 0.5738,1.07806 0.1941,1.72756 -4.7883,8.18951 -10.3422,14.72436 -10.3422,12.16891 z m -40.4631,-3.09396 c -1.1516,-1.15163 -1.3098,-1.96278 -0.5591,-2.86732 1.1285,-1.35977 0.015,-2.68392 -3.2278,-3.84011 -2.0717,-0.73853 -2.3724,-4.68662 -0.357,-4.68662 1.873,0 2.7238,-2.48316 1.3289,-3.87814 -1.3859,-1.38583 0.4887,-3.59277 3.0665,-3.61025 1.009,-0.007 1.8428,-0.93524 2.0312,-2.26161 0.1757,-1.2375 0.7014,-2.25 1.1682,-2.25 0.4667,0 1.5604,-0.27314 2.4304,-0.60699 1.038,-0.39831 1.5818,-0.0545 1.5818,1 0,1.83384 4.6047,2.29305 5.1963,0.51822 0.2193,-0.65793 1.3276,-0.30757 2.8009,0.88538 1.9598,1.58697 2.2038,2.25627 1.2442,3.41257 -1.3345,1.6079 0.081,3.79082 2.4586,3.79082 0.8232,0 1.3,1.30546 1.3,3.55902 0,2.11803 -0.4049,3.30878 -1,2.94098 -1.7489,-1.08086 -3.2267,0.52195 -1.9261,2.08903 0.898,1.08206 0.8808,1.76063 -0.074,2.91097 -0.6847,0.825 -1.6719,1.5 -2.1939,1.5 -0.5219,0 -1.624,0.675 -2.449,1.5 -1.8245,1.82456 -5.48,1.95006 -7.2821,0.25 -1.06,-1 -1.4167,-1 -1.7833,0 -0.6186,1.68703 -1.8263,1.57255 -3.7548,-0.35595 z m 10.8917,-6.96548 c 3.4599,-3.45997 0.8405,-9.23368 -3.6733,-8.09633 -2.1774,0.54866 -2.1882,0.51819 -0.3142,-0.88198 1.0677,-0.79764 1.4658,-1.45026 0.8849,-1.45026 -2.0842,0 -6.326,4.18673 -6.326,6.24384 0,4.81779 6.0918,7.52153 9.4286,4.18473 z m -77.3243,-1.93379 c -2.3642,-2.43957 -5.8299,-4.9893 -7.7014,-5.66607 -1.8716,-0.67677 -3.4029,-1.59009 -3.4029,-2.0296 0,-2.81971 9.1976,2.3197 13.3261,7.44635 4.2997,5.3391 2.8667,5.4999 -2.2218,0.24932 z m -7.1231,1.49361 c -1.9947,-1.23281 -0.5098,-2.3836 1.5722,-1.21844 0.9369,0.52431 1.2867,1.21086 0.7773,1.52568 -0.5094,0.31482 -1.5667,0.17656 -2.3495,-0.30724 z m -34.9812,-6.48839 c 0.6847,-0.825 1.6949,-1.5 2.2449,-1.5 0.5578,0 0.4495,0.66326 -0.2449,1.5 -0.6847,0.825 -1.6949,1.5 -2.2449,1.5 -0.5578,0 -0.4495,-0.66326 0.2449,-1.5 z m 5.4411,-3.0318 c 1.0677,-0.80751 2.6427,-1.45225 3.5,-1.43276 0.9992,0.0227 0.6613,0.54853 -0.9411,1.46456 -3.272,1.87047 -5.0448,1.84843 -2.5589,-0.0318 z m -57.1851,-5.20644 c -15.1941,-22.12087 -19.1947,-48.97148 -11.0644,-74.26176 3.6236,-11.27194 16.1831,-34 18.7882,-34 1.4905,0 1.3249,0.44827 -1.9677,5.3269 -7.6858,11.38832 -14.7158,28.42585 -16.9614,41.10676 -3.4601,19.5399 1.575,42.95243 12.9532,60.2303 2.5889,3.93128 0.9094,5.46654 -1.7479,1.5978 z m 106.744,0.25976 c -7.425,-0.70296 -23.7375,-2.10018 -36.25,-3.10493 -17.0133,-1.36617 -22.75,-2.15335 -22.75,-3.12171 0,-1.03975 8.4644,-1.29488 42.959,-1.29488 h 42.959 l -1.7999,4.25 c -1.7527,4.1383 -1.929,4.25394 -6.709,4.39981 -2.7,0.0824 -10.9841,-0.42534 -18.4091,-1.12829 z m 69.3286,-3.27152 c 0.309,-0.9625 1.8831,-5.35 3.498,-9.75 1.6149,-4.4 3.4714,-10.5875 4.1257,-13.75 0.6542,-3.1625 1.6076,-5.75 2.1186,-5.75 1.1816,0 1.1691,0.20399 -0.4888,8.02446 -1.7359,8.18795 -7.3814,22.97554 -8.7714,22.97554 -0.5742,0 -0.7911,-0.7875 -0.4821,-1.75 z m -91.3286,-23.43436 c -43.5681,-2.03038 -49,-2.45513 -49,-3.8316 0,-0.49138 1.4625,-1.11768 3.25,-1.39178 4.7717,-0.73172 100.8538,-2.82175 101.4684,-2.2072 0.2874,0.2874 0.2158,2.56834 -0.1592,5.06874 l -0.6817,4.5462 -7.1888,-0.14848 c -3.9538,-0.0817 -25.4137,-0.99782 -47.6887,-2.03588 z m -18.717,-25.79104 c -15.5194,-0.34395 -28.502,-0.91025 -28.8502,-1.25845 -1.6471,-1.64712 1.3233,-2.55905 10.2957,-3.16082 14.825,-0.99429 73.8152,-3.58562 81.8632,-3.5961 l 7.0917,-0.009 1.1583,3.86602 c 0.6371,2.12631 1.1583,4.15131 1.1583,4.5 0,0.72298 -31.3269,0.5759 -72.717,-0.34142 z m -1.533,-25.77081 c -9.8468,-0.29444 -13.4148,-1.33789 -9,-2.63198 5.8496,-1.71464 57.9356,-6.34018 60.4648,-5.36962 0.8098,0.31074 2.9306,2.40612 4.7128,4.6564 l 3.2405,4.09141 -24.3341,-0.21238 c -13.3837,-0.11681 -29.1715,-0.35704 -35.084,-0.53383 z m 106.8534,-19.50379 c -5.7269,-10.18634 -11.3649,-17.76782 -21.2243,-28.54065 -4.1847,-4.57233 -7.3195,-8.60224 -6.9664,-8.95535 1.0196,-1.01967 13.1421,11.44371 20.1785,20.746 5.4255,7.17264 14.4088,22.38669 14.4088,24.4027 0,2.30887 -2.4315,-0.6001 -6.3966,-7.6527 z m -86.6034,-5.68016 -7.5,-0.56984 5.6966,-3.85612 5.6966,-3.85612 2.8034,2.00835 c 1.5419,1.1046 3.8943,3.17735 5.2277,4.60612 l 2.4243,2.59777 -3.4243,-0.18016 c -1.8834,-0.0991 -6.7993,-0.43659 -10.9243,-0.75 z m -39.7971,-57.78468 c -28.9061,-28.47787 -38.6515,-46.75849 -38.5352,-72.28516 0.092,-20.29487 5.9332,-34.77144 26.225,-65 6.4611,-9.625 13.436,-20.3125 15.4998,-23.75 4.1476,-6.9084 6.1617,-8.09969 5.0719,-3 -1.2427,5.81599 -5.3733,14.97384 -13.4185,29.75 -15.4561,28.38739 -19.4192,44.14044 -15.617,62.07689 1.6548,7.80626 5.9529,17.62645 11.2172,25.62908 5.064,7.69801 21.4049,24.49455 34.1039,35.05487 5.6375,4.68805 10.25,8.83018 10.25,9.20472 0,0.565 -12.2549,11.25496 -18.1448,15.82776 -1.4326,1.11219 -3.5819,-0.63129 -16.6523,-13.50816 z m -26.7711,3.46484 c -13.0794,-14.44522 -21.9823,-29.2381 -26.813,-44.55162 -2.9138,-9.23678 -3.1113,-10.52923 -1.5287,-10.00169 0.5995,0.19985 2.3307,4.22147 3.8472,8.93695 5.0939,15.84022 12.9992,28.99833 26.9116,44.79355 3.2666,3.70856 4.7626,6.07281 3.8427,6.07281 -0.8284,0 -3.6454,-2.3625 -6.2598,-5.25 z m 136.6047,-1.26833 c -0.02,-0.56008 1.8212,-3.26008 4.0917,-6 11.1925,-13.50643 18.6897,-27.25297 23.4961,-43.08128 2.3752,-7.82226 2.7131,-10.65682 2.7892,-23.40039 0.095,-15.98905 -1.4465,-23.17935 -7.573,-35.31595 -2.8061,-5.55888 -3.1464,-7.6092 -1.0477,-6.31214 1.6428,1.01532 7.9694,14.9345 9.8304,21.62809 2.6473,9.52141 2.4064,31.6495 -0.4603,42.28378 -4.1356,15.34091 -14.3638,33.47014 -25.6228,45.41573 -3.007,3.19027 -5.4836,5.34224 -5.5036,4.78216 z m -76.9884,-18.01342 -3.4518,-3.46825 h 11.7018 c 6.4361,0 11.6923,0.3375 11.6806,0.75 -0.012,0.4125 -1.7712,1.9875 -3.9098,3.5 -5.7751,4.08427 -11.4535,3.80718 -16.0208,-0.78175 z m -24.4702,-24.64825 c -4.3966,-5.13651 -4.4895,-6.25231 -0.4529,-5.445 1.7188,0.34375 18.1438,0.625 36.5,0.625 27.6695,0 33.375,0.23532 33.375,1.37653 0,0.98917 -2.603,1.69014 -9.25,2.491 -7.9072,0.95269 -53.3149,5.13247 -55.7574,5.13247 -0.4602,0 -2.4468,-1.881 -4.4147,-4.18 z m -16.8591,-26.44087 c -0.9565,-2.58071 -1.622,-4.77591 -1.4789,-4.87822 0.5822,-0.41639 87.7981,1.4746 94.5101,2.04914 4.8379,0.41412 7.25,1.04002 7.25,1.88126 0,1.32533 -2.3661,1.48888 -51,3.52517 -12.925,0.54117 -28.9095,1.2384 -35.5211,1.5494 l -12.0211,0.56546 z m -2.7051,-24.47417 c 0.01,-1.32273 0.3023,-3.48387 0.6552,-4.80255 l 0.6416,-2.39758 13.0947,0.59453 c 77.5353,3.52029 88.5622,4.17328 88.9828,5.26928 0.6902,1.79861 -9.1914,2.31489 -58.638,3.06364 l -44.75,0.67764 z m -45.0137,0.20691 c 0,-2.31748 5.3315,-18.97421 6.964,-21.7573 1.3675,-2.33113 1.5537,-3.43685 0.7194,-4.27114 -0.6191,-0.61914 -1.1387,-2.1287 -1.1545,-3.35457 -0.02,-1.53888 -0.7254,-2.32778 -2.2789,-2.54841 -1.7488,-0.24837 -2.25,-0.97237 -2.25,-3.25 0,-1.83815 0.5192,-2.93045 1.393,-2.93045 1.87,0 2.9883,-3.14629 1.4552,-4.09383 -1.6979,-1.04936 0.7741,-3.98835 2.7249,-3.23974 0.8667,0.33257 1.4269,-0.0759 1.4269,-1.04039 0,-2.13869 4.9155,-3.35136 6.1263,-1.51139 0.7549,1.14712 1.1424,1.08442 2.253,-0.36465 1.6501,-2.15307 2.0603,-2.16754 4.0838,-0.14405 1.1827,1.18266 1.3205,1.94991 0.5229,2.91097 -1.1743,1.41491 0.2873,2.90677 2.8967,2.95665 2.0877,0.0399 3.4545,4.45979 1.5993,5.17173 -1.7457,0.66985 -1.9762,3.02331 -0.3493,3.5656 2.1281,0.70937 -0.065,4.76374 -2.443,4.51663 -1.7297,-0.17973 -2.1897,0.29766 -2.1897,2.27247 0,1.9839 -0.5677,2.56532 -2.75,2.81642 -1.5125,0.17403 -2.75,-0.16347 -2.75,-0.75 0,-1.43251 -3.1291,-1.29848 -5.0283,0.21538 -1.3962,1.11292 -6.9926,16.38746 -8.4153,22.9682 -0.5412,2.50355 -2.5564,3.97123 -2.5564,1.86187 z m 19.1713,-32.76686 c 3.422,-3.09693 1.0836,-9.34501 -3.4975,-9.34501 -2.6763,0 -5.6738,2.81394 -5.6738,5.32625 0,4.79296 5.6029,7.24809 9.1713,4.01876 z m 70.5787,8.90536 c -20.7625,-0.15093 -37.75,-0.51194 -37.75,-0.80223 0,-0.2903 0.9388,-2.36805 2.0863,-4.61723 l 2.0862,-4.08942 6.1638,0.60821 c 3.39,0.33451 9.9565,0.91408 14.5922,1.28792 l 8.4285,0.6797 -4.1487,-3.74811 c -2.2818,-2.06147 -5.3343,-6.17132 -6.7833,-9.13301 -2.2081,-4.51317 -3.1655,-5.48449 -5.9142,-6.00014 l -3.2795,-0.61525 1.536,-3.91041 c 1.2855,-3.27242 2.0008,-3.9104 4.3844,-3.9104 1.5666,0 2.8483,0.39541 2.8483,0.87868 0,0.48327 1.4625,1.47023 3.25,2.19323 4.424,1.78938 6.5139,4.92809 3.2814,4.92809 -3.356,0 2.567,8.71322 8.6672,12.75012 2.2202,1.46928 3.4887,2.85412 2.8188,3.07742 -1.6186,0.53951 -11.9434,-9.71295 -12.6664,-12.57754 -0.3906,-1.54785 -1.3142,-2.25 -2.9594,-2.25 -3.0511,0 -3.0056,0.64101 0.43,6.05422 3.7831,5.96086 12.9637,14.14871 15.1028,13.46977 0.9096,-0.28868 10.3917,0.37532 21.0713,1.47556 10.6796,1.10025 19.9995,2.00045 20.7109,2.00045 0.7114,0 1.2934,0.675 1.2934,1.5 0,1.10891 -0.9777,1.43805 -3.75,1.26239 -2.0625,-0.13068 -20.7375,-0.3611 -41.5,-0.51202 z m -119.0052,-11.83888 c -0.574,-0.57399 2.5632,-5.98626 6.9237,-11.94467 1.1927,-1.62974 2.4998,-2.63188 2.9047,-2.22697 0.4049,0.4049 -1.362,3.89158 -3.9265,7.74817 -4.8467,7.28875 -4.9376,7.38773 -5.9019,6.42347 z m 150.8554,-0.24937 c -0.2507,-0.40558 1.8743,-2.04017 4.722,-3.63243 3.0628,-1.71249 4.6348,-2.22894 3.8485,-1.26435 -1.8486,2.26778 -8.0171,5.79216 -8.5705,4.89678 z m -4.6002,-2.22114 c 0,-0.58246 0.45,-0.7809 1,-0.44098 0.55,0.33992 1,0.81648 1,1.05902 0,0.24254 -0.45,0.44098 -1,0.44098 -0.55,0 -1,-0.47656 -1,-1.05902 z m -91.1175,-14.48803 c -1.5757,-7.38924 -1.6284,-7.43992 -10.3825,-9.97363 -3.3,-0.95513 -6.5397,-1.9431 -7.1993,-2.19548 -0.6596,-0.25239 -3.4802,1.67469 -6.2681,4.2824 l -5.0688,4.74128 -5.2319,-3.61213 c -2.8775,-1.98667 -6.764,-4.89574 -8.6366,-6.46461 l -3.4047,-2.85248 3.6418,-6.51228 3.6419,-6.51228 -2.5661,-3.42687 c -1.4114,-1.88478 -3.6632,-5.56437 -5.004,-8.17687 l -2.4379,-4.75 h -7.9037 c -7.8194,0 -7.9097,-0.0293 -8.4654,-2.75 -1.6576,-8.11513 -2.5888,-16.65771 -1.8913,-17.35007 0.4368,-0.43355 3.6934,-1.82589 7.237,-3.0941 l 6.443,-2.30583 1.4062,-8.4782 1.4062,-8.47819 -2.3255,-1.52181 c -4.4863,-2.93584 -8.8728,-7.24326 -8.8728,-8.71291 0,-1.45902 5.5566,-11.97594 8.3056,-15.72005 1.3754,-1.87317 1.5327,-1.86547 7.914,0.38735 l 6.5108,2.2985 6.6876,-5.35907 c 5.1861,-4.1559 6.576,-5.81443 6.1907,-7.38734 -0.2733,-1.11555 -0.7927,-4.29776 -1.1542,-7.07156 -0.7423,-5.69555 -0.7782,-5.66268 10.4521,-9.5738 7.9474,-2.76782 8.4315,-2.60189 12.0127,4.11708 l 3.198,6 h 8.7575 8.7575 l 2.8677,-6 c 3.303,-6.91074 3.8336,-7.06737 13.6589,-4.03264 9.6092,2.96798 9.8269,3.25354 8.6872,11.39839 -0.919,6.56812 -0.8606,6.93573 1.3466,8.4803 1.269,0.888 4.0049,3.14739 6.0797,5.02086 l 3.7724,3.40632 6.9739,-2.57476 6.9739,-2.57475 2.3929,3.18814 c 1.3161,1.75348 3.8806,5.6306 5.6988,8.61583 l 3.3059,5.4277 -5.7654,5.15655 -5.7655,5.15656 1.5704,6.06009 c 0.8637,3.33306 1.5703,6.97096 1.5703,8.08422 0,1.5926 1.3325,2.47117 6.25,4.12099 9.7854,3.28296 9.362,2.59938 7.8995,12.75454 -0.698,4.84641 -1.6323,9.17934 -2.0763,9.62872 -0.444,0.44938 -4.2126,1.07461 -8.3747,1.38938 l -7.5674,0.57232 -5.1518,9.11062 c -5.1531,9.11287 -8.9793,14.15501 -8.9793,11.83284 0,-0.67222 -0.4766,-1.22222 -1.059,-1.22222 -0.5825,0 -0.8235,0.38114 -0.5356,0.84698 0.2879,0.46583 -0.8105,2.12502 -2.441,3.68709 -3.0707,2.94193 -3.9727,2.38161 -1.4754,-0.9166 1.2352,-1.63142 1.2309,-2.25837 -0.032,-4.70034 -2.1119,-4.08395 -1.8192,-5.94549 1.4735,-9.36952 3.0834,-3.20645 7.4562,-11.21302 8.5763,-15.70313 0.3643,-1.46053 1.5243,-2.8809 2.5777,-3.15638 2.8107,-0.73501 2.7409,-7.65945 -0.085,-8.39835 -1.497,-0.39146 -2.0377,-1.43688 -2.1498,-4.15638 -0.1385,-3.35772 -0.1812,-3.40577 -0.5623,-0.63337 -0.2268,1.65 -1.059,3.49937 -1.8494,4.10972 -0.7904,0.61034 -1.8743,3.41503 -2.4086,6.23265 -1.0859,5.72594 -3.7425,11.45035 -7.3205,15.7741 -1.3124,1.58594 -3.8567,5.80853 -5.654,9.38353 -1.7973,3.575 -6.9965,12.125 -11.5538,19 -4.5573,6.875 -9.2437,14.4125 -10.4141,16.75 -1.3466,2.68922 -2.8039,4.25 -3.9683,4.25 -1.012,0 -3.8543,0.27608 -6.3161,0.61352 l -4.4761,0.61351 z m 8.573,-20.38095 c 0.7339,-1.18749 -1.7309,-1.89997 -7.673,-2.21795 -5.877,-0.3145 -7.319,0.79875 -2.1347,1.64806 2.1187,0.34709 4.5272,0.7739 5.3522,0.94848 2.9285,0.61969 3.889,0.53807 4.4555,-0.37859 z m 6.5445,-1.26196 c 0,-1.32759 -3.2454,-0.57706 -3.7242,0.86127 -0.2481,0.74511 0.3585,0.97557 1.6671,0.63337 1.1314,-0.29587 2.0571,-0.96845 2.0571,-1.49464 z m -22,0.18996 c 0,-0.55 -0.45,-1 -1,-1 -0.55,0 -1,0.45 -1,1 0,0.55 0.45,1 1,1 0.55,0 1,-0.45 1,-1 z m -4,-1.87868 c 0,-0.48327 -1.4567,-1.48205 -3.2371,-2.21951 -1.7803,-0.73746 -6.0553,-3.47402 -9.5,-6.08124 -3.5479,-2.68544 -6.2629,-4.15898 -6.2629,-3.39918 0,1.50615 5.1207,5.71078 11.9492,9.81156 4.6656,2.80186 7.0508,3.44068 7.0508,1.88837 z m 31.1079,-7.15768 c 13.6559,-4.60034 21.5453,-13.55723 25.4628,-28.90829 1.4924,-5.84798 1.6353,-16.18267 0.2431,-17.57493 -0.2871,-0.28705 -2.8376,-0.0253 -5.6679,0.5817 l -5.1459,1.10361 -0.01,6.66713 c -0.037,25.58678 -31.3753,38.02814 -48.3529,19.19646 -6.0528,-6.71377 -7.9708,-12.01627 -7.3959,-20.44656 0.2656,-3.89552 1.3106,-8.78552 2.3222,-10.86667 l 1.8391,-3.78391 -4.1583,-4.15833 -4.1583,-4.15832 -2.5246,5.44223 c -5.6393,12.15666 -5.7303,24.34096 -0.2709,36.26577 4.6485,10.15378 15.4933,19.21318 25.9828,21.70521 6.2369,1.48172 15.6353,1.02327 21.8345,-1.0651 z m -55.0725,-15.21364 c -4.404,-9.62552 -4.5146,-10.41292 -1.5659,-11.15298 3.2599,-0.81819 3.2808,-2.59702 0.03,-2.59702 -1.5556,0 -2.5,-0.56667 -2.5,-1.5 0,-0.83333 0.8888,-1.5 2,-1.5 1.1,0 2,-0.45 2,-1 0,-0.55 -1.19,-1 -2.6444,-1 h -2.6443 l 0.6403,-7.25 c 0.3522,-3.9875 0.9324,-8.55438 1.2894,-10.14862 0.4178,-1.86614 0.2849,-2.67364 -0.3731,-2.267 -1.5052,0.93026 -3.2679,8.81025 -3.2679,14.60844 0,4.43762 -0.2521,5.05718 -2.0575,5.05718 -1.8022,0 -2.0194,0.52744 -1.75,4.25 0.2501,3.45694 0.7053,4.30674 2.4394,4.55408 1.5668,0.22348 2.7081,1.81372 4.3059,6 2.4652,6.45885 4.6763,10.19592 6.0327,10.19592 0.5084,0 -0.3624,-2.8125 -1.9352,-6.25 z m -9.0354,-14.25 c 0,-1.68889 0.4583,-2.51389 1.25,-2.25 0.6875,0.22917 1.25,1.24167 1.25,2.25 0,1.00833 -0.5625,2.02083 -1.25,2.25 -0.7917,0.26389 -1.25,-0.56111 -1.25,-2.25 z m 57.9296,13.56466 c 0.7863,-0.4976 1.5282,-1.57641 1.6487,-2.39736 0.181,-1.23297 -0.3006,-1.31146 -2.7684,-0.45119 -3.5867,1.25033 -11.6261,0.44511 -15.5061,-1.55306 -2.3613,-1.21604 -3.0027,-1.22939 -4.0642,-0.0845 -1.0327,1.11381 -0.7256,1.63596 1.7003,2.89044 3.8625,1.99733 5.4224,1.91829 1.7217,-0.0872 -3.945,-2.13791 -2.6038,-2.92031 1.4301,-0.83428 2.4967,1.29107 4.9099,1.5781 10.1286,1.2047 7.8704,-0.56312 8.2061,0.39384 0.4683,1.33511 l -5.1886,0.63117 4.5,0.12549 c 2.475,0.069 5.1433,-0.28164 5.9296,-0.77923 z m 8.4078,-3.52058 c 2.1331,-1.61642 6.6626,-7.55713 6.6626,-8.73836 0,-1.58534 -1.8767,-0.76958 -2.4604,1.06948 -0.3273,1.03136 -2.1793,3.50636 -4.1155,5.5 -3.5149,3.61919 -3.5622,4.80256 -0.087,2.16888 z m 0.7287,-5.79396 c 1.6136,-2.22761 2.9339,-4.49548 2.9339,-5.03971 0,-0.54422 -1.1798,0.76079 -2.6218,2.90004 -1.442,2.13925 -3.242,4.24941 -4,4.68924 -0.758,0.43983 -1.3782,1.25389 -1.3782,1.80902 0,1.63364 1.9251,-0.0226 5.0661,-4.35859 z m -35.194,-2.28653 c -2.3899,-4.69753 -2.9367,-6.86586 -2.5759,-10.21359 0.2658,-2.46536 0.039,-4.25 -0.5392,-4.25 -2.0891,0 -0.2448,11.49185 2.6321,16.40103 3.8529,6.57441 4.1688,5.30721 0.483,-1.93744 z m 27.6279,2.4743 c 6.3829,-3.82923 8.9493,-14.18042 4.8702,-19.64388 -2.1695,-2.90583 -3.624,-3.17239 -3.9825,-0.72987 -0.3418,2.32902 -1.26,2.96359 -2.4975,1.7261 -0.7685,-0.76858 -0.5874,-1.82267 0.6332,-3.68567 1.7073,-2.60556 1.7046,-2.61135 -1.8747,-4.1069 -4.4354,-1.85321 -6.7933,-1.88191 -10.9775,-0.13364 -7.0654,2.95213 -10.9919,11.10408 -8.6973,18.05686 1.4517,4.39863 2.7771,5.3019 4.4409,3.02647 2.0206,-2.76325 4.0669,-0.83152 2.1761,2.05421 -1.4095,2.15127 -1.357,2.42168 0.7374,3.79395 4.5052,2.95196 9.8656,2.82561 15.1717,-0.35763 z m -2.9658,-3.88252 c -0.9652,-1.56182 0.3048,-3.05537 2.5981,-3.05537 1.3751,0 1.9081,0.55174 1.6795,1.73852 -0.3837,1.99254 -3.3043,2.89164 -4.2776,1.31685 z m -7.3104,-2.23158 c -0.8589,-0.85892 -0.8798,-1.5333 -0.078,-2.5 1.4914,-1.79705 3.7285,-1.67641 3.4551,0.18633 -0.3637,2.47817 -2.0547,3.63653 -3.3776,2.31367 z m -4.2681,-5.37718 c -0.9031,-1.08814 -0.9611,-1.84121 -0.2004,-2.60186 1.2816,-1.28164 3.2447,-0.2802 3.2447,1.65525 0,2.13701 -1.6345,2.64526 -3.0443,0.94661 z m -5.9557,-1.44661 c 0,-1.11111 0.6667,-2 1.5,-2 0.8333,0 1.5,0.88889 1.5,2 0,1.11111 -0.6667,2 -1.5,2 -0.8333,0 -1.5,-0.88889 -1.5,-2 z m 18,-0.0833 c 0,-2.43705 2.3368,-2.09257 2.8233,0.4162 0.1914,0.98673 -0.3187,1.6671 -1.25,1.6671 -0.9276,0 -1.5733,-0.855 -1.5733,-2.08333 z m -6,-6.4167 c 0,-0.825 0.675,-1.5 1.5,-1.5 0.825,0 1.5,0.675 1.5,1.5 0,0.825 -0.675,1.5 -1.5,1.5 -0.825,0 -1.5,-0.675 -1.5,-1.5 z m -9.4438,-0.40915 c -0.8304,-1.34357 3.2092,-3.39487 5.1892,-2.63507 0.9385,0.36014 1.2135,0.95974 0.6718,1.46461 -1.5855,1.47762 -5.2223,2.20391 -5.861,1.17046 z m -5.6876,17.72455 c -3.2405,-4.55082 -3.7445,-13.1846 -1.0737,-18.39395 2.4344,-4.74842 5.556,-7.77973 10.2122,-9.9171 3.3598,-1.54224 3.3786,-1.57982 0.4929,-0.98636 -3.6656,0.75385 -10.2364,6.82768 -12.1164,11.19989 -2.5775,5.99461 -1.4583,15.33212 2.341,19.53029 2.5323,2.79812 2.6095,2.02972 0.144,-1.43277 z m 33.2567,-19.56974 c -2.0748,-4.06699 -5.1253,-7.29711 -5.1253,-5.42712 0,0.58488 0.4969,1.3705 1.1041,1.74581 1.8832,1.16387 4.8419,8.7364 5.0542,12.93565 0.1998,3.95211 0.2067,3.94388 0.5742,-0.68745 0.2606,-3.28418 -0.2205,-5.84882 -1.6072,-8.56689 z m 3.2912,-3.22167 c -5.9287,-10.89305 -19.355,-15.08639 -30.9165,-9.65596 -4.7929,2.25123 -9.9303,6.63197 -7.7774,6.63197 0.5679,0 1.62,-0.70789 2.3381,-1.57309 2.6354,-3.17555 9.31,-5.74351 14.9393,-5.7477 13.1521,-0.01 22.4511,8.94481 23.1794,22.32079 0.1251,2.2981 0.3169,1.69112 0.5585,-1.76754 0.2982,-4.27043 -0.1412,-6.20281 -2.3214,-10.20847 z m 12.0235,1.42128 c 3.9562,-0.74219 5.3298,-2.07547 3.7578,-3.64752 -0.704,-0.70399 -2.5519,-0.46302 -5.8629,0.76455 -5.8813,2.18051 -5.6942,2.04737 -4.8339,3.43934 0.3857,0.62409 1.2988,0.90542 2.0291,0.62517 0.7304,-0.28025 2.9398,-0.81194 4.9099,-1.18154 z m -51.94,-1.2786 c 0,-1.80866 -1.9573,-1.47847 -2.3455,0.39568 -0.216,1.04271 0.1589,1.49986 1,1.21948 0.74,-0.24667 1.3455,-0.9735 1.3455,-1.61516 z m 75.9596,-2.3005 c 0.7605,-0.8147 -0.3183,-0.94456 -4.0088,-0.48259 l -5.0492,0.63203 -2.1388,-4.2578 c -2.4518,-4.88115 -3.0509,-2.5798 -0.7573,2.90949 1.4938,3.57519 1.5418,3.59807 6.2096,2.95828 2.5872,-0.35463 5.1723,-1.14636 5.7445,-1.75941 z m -24.645,-2.46192 3.3146,-1.35617 -3.0059,-4.36892 c -4.1563,-6.0409 -9.4125,-10.42792 -16.5229,-13.79061 -6.7818,-3.20731 -6.9586,-3.11417 -8.0167,4.22419 l -0.6651,4.61274 5.4986,2.69022 c 3.1413,1.5369 6.8499,4.39629 8.6505,6.6698 3.3579,4.23972 3.5502,4.26331 10.7469,1.31875 z m -22.3958,-0.3855 c -0.5397,-0.53969 -2.5422,-1.22932 -4.45,-1.53252 l -3.4688,-0.55127 3.5,1.41321 c 4.3588,1.75996 5.7138,1.96559 4.4188,0.67058 z m -51.4188,-2.51875 c 0,-0.825 -0.675,-1.5 -1.5,-1.5 -1.5616,0 -1.984,1.1827 -0.8333,2.33333 1.1506,1.15064 2.3333,0.72824 2.3333,-0.83333 z m 22.595,-1.60641 c 2.7396,-3.0293 8.6952,-5.83456 13.9018,-6.54821 3.7178,-0.50958 4.5051,-0.98595 4.5142,-2.7313 0.01,-1.16275 0.3011,-3.87043 0.6557,-6.01708 l 0.6446,-3.90301 -5.978,0.54207 c -6.7642,0.61336 -12.4278,3.15568 -20.1313,9.03666 l -5.298,4.0446 3.7509,3.84134 c 4.3138,4.4177 5.3159,4.63666 7.9401,1.73493 z m 20.1342,1.50224 c -0.3323,-0.33229 -1.1948,-0.36781 -1.9167,-0.0789 -0.7977,0.31922 -0.5608,0.55618 0.6042,0.60416 1.0541,0.0434 1.6448,-0.19293 1.3125,-0.52522 z m 4.6609,-14.72257 c 0.5784,-5.22153 0.4618,-5.79178 -1.1223,-5.49014 -1.3696,0.26078 -1.883,1.62878 -2.2794,6.07287 -0.3059,3.42977 -0.1048,5.88861 0.5,6.11514 1.6877,0.6321 2.2278,-0.61451 2.9017,-6.69787 z m -36.3901,0.88576 c 0,-0.79254 -0.4573,-1.72364 -1.0163,-2.0691 -0.559,-0.34546 -0.7393,-1.07634 -0.4007,-1.62416 0.3701,-0.59891 1.3759,-0.30799 2.5224,0.72963 2.3249,2.10403 3.4463,1.30407 1.9891,-1.4189 -0.9164,-1.71217 -0.5987,-2.27148 2.2423,-3.94772 4.3069,-2.54112 14.1943,-6.22877 16.7007,-6.22877 1.0794,0 1.9625,-0.45 1.9625,-1 0,-0.55 -0.5933,-1 -1.3185,-1 -2.7872,0 -12.3903,3.31531 -16.8995,5.83428 -4.5309,2.53111 -4.7714,2.56247 -6.0667,0.79101 -1.2944,-1.77017 -1.4625,-1.74681 -4.1667,0.57924 -2.4884,2.14049 -2.6762,2.6886 -1.6057,4.68876 2.7229,5.08779 6.0571,7.6561 6.0571,4.66573 z m -4.402,-5.40044 c -0.7705,-1.24671 1.0938,-3.46711 2.2902,-2.72768 0.6115,0.37792 1.1118,1.06243 1.1118,1.52113 0,1.14071 -2.8237,2.14218 -3.402,1.20655 z m 61.3817,-0.11874 c 2.6563,-5.20678 2.5818,-5.69813 -1.1572,-7.63164 -2.9826,-1.54237 -3.2574,-1.53387 -4.4803,0.13851 -1.1396,1.55845 -1.7896,1.63581 -5.1885,0.61748 -4.6343,-1.38846 -5.1537,-1.42096 -5.1537,-0.32248 0,0.46294 1.824,1.3882 4.0534,2.05613 2.8082,0.84137 4.0015,1.73474 3.8848,2.90829 -0.3158,3.17463 0.061,3.50464 1.9988,1.7509 2.4481,-2.2155 3.9377,-1.35243 3.3123,1.9191 -0.7038,3.68181 0.4213,3.08998 2.7304,-1.43629 z m -3.9797,-4.53984 c 0,-1.02996 0.6554,-1.52043 1.75,-1.30963 2.1078,0.40593 1.9749,2.18068 -0.1972,2.63295 -0.906,0.18865 -1.5528,-0.36259 -1.5528,-1.32332 z m 2,-18 c 0,-0.825 -0.675,-1.5 -1.5,-1.5 -0.825,0 -1.5,0.675 -1.5,1.5 0,0.825 0.675,1.5 1.5,1.5 0.825,0 1.5,-0.675 1.5,-1.5 z m -6.1767,-1.83287 c 0.1871,-0.96457 -0.3148,-1.66713 -1.191,-1.66713 -1.8577,0 -2.9789,1.63015 -2.0997,3.05279 0.9046,1.46356 2.9012,0.62281 3.2907,-1.38566 z m 9.1767,-1.63195 c 0,-1.2497 -3.5469,-3.15499 -4.3598,-2.34201 -0.8739,0.87385 1.3203,3.30683 2.9822,3.30683 0.7577,0 1.3776,-0.43417 1.3776,-0.96482 z m 41,132.7526 c -1.375,-0.71696 -3.3166,-2.97077 -4.3146,-5.00846 -1.7064,-3.48415 -1.7158,-3.913 -0.157,-7.1979 1.9596,-4.12964 9.8298,-8.62325 11.7463,-6.70677 0.6189,0.61894 1.9237,1.12535 2.8996,1.12535 1.9679,0 4.8257,4.73763 4.8257,8 0,1.15463 -0.7366,3.53947 -1.6368,5.29966 l -1.6368,3.20034 2.1368,-1.90499 c 2.9612,-2.63995 2.9736,-10.26146 0.023,-14.01281 -2.5024,-3.18125 -1.7496,-4.67371 1.0702,-2.12182 5.0268,4.54919 4.7445,14.54004 -0.5081,17.98167 -3.4399,2.25389 -11.302,2.98619 -14.4481,1.34573 z m 9.6874,-2.57344 c 1.8214,-1.15812 3.2477,-5.72694 2.609,-8.35702 -0.8468,-3.4869 -4.3108,-6.85732 -7.0476,-6.85732 -3.236,0 -8.2488,5.14636 -8.2488,8.46853 0,5.31743 8.1331,9.64172 12.6874,6.74581 z m -152.6874,1.00677 c 0,-1.3403 12.9104,-13.64402 13.5967,-12.95774 0.3583,0.35826 -2.1758,3.59556 -5.6312,7.19401 -5.8776,6.12093 -7.9655,7.63171 -7.9655,5.76373 z m -26,-1.46444 c 0,-1.17579 33.8095,-24.75667 35.4953,-24.75667 3.0467,0 -4.1111,5.3271 -32.7159,24.3482 -2.2297,1.48269 -2.7794,1.56347 -2.7794,0.40847 z m 207,-18.75667 c 0,-0.55 0.45,-1 1,-1 0.55,0 1,0.45 1,1 0,0.55 -0.45,1 -1,1 -0.55,0 -1,-0.45 -1,-1 z m -6.8248,-11.68234 c -6.1899,-6.36262 -7.332,-8.54231 -3.363,-6.41815 2.714,1.45249 10.1878,10.06591 10.1878,11.74128 0,1.78985 0.394,2.09715 -6.8248,-5.32313 z m 8.0565,0.74818 c -3.3298,-5.35661 -9.3909,-10.30322 -14.8199,-12.09494 -1.8866,-0.62264 -3.1912,-1.51884 -2.899,-1.99154 0.7797,-1.2617 6.7043,1.06873 11.7132,4.60739 3.8994,2.75477 10.774,11.42288 10.774,13.58469 0,2.0966 -1.964,0.40555 -4.7683,-4.1056 z m -71.1957,-5.78111 c -0.02,-0.6684 1.3019,-3.32486 2.937,-5.90324 1.6352,-2.57839 3.4701,-6.19401 4.0776,-8.03473 1.0757,-3.25957 2.9592,-4.603 2.9396,-2.09676 -0.028,3.57661 -9.8545,19.40563 -9.9542,16.03473 z m -138.5404,-2.29179 c -0.7202,-1.16532 -0.3465,-1.3057 9.0044,-3.38277 9.8487,-2.18763 9.9669,-2.20104 10.2944,-1.16831 0.2203,0.69456 -9.4938,3.59391 -18.4854,5.51729 -0.105,0.0225 -0.471,-0.41233 -0.8134,-0.96621 z m 148.5044,-19.99294 c 0,-1.33333 0.6667,-2 2,-2 1.3333,0 2,0.66667 2,2 0,1.33333 -0.6667,2 -2,2 -1.3333,0 -2,-0.66667 -2,-2 z m -155.7125,-12.43165 c -8.5977,-1.08269 -11.2968,-1.89236 -10.1457,-3.04349 1.0027,-1.00267 20.2011,2.00372 20.6089,3.22726 0.2288,0.68634 0.041,1.18679 -0.4174,1.11211 -0.4583,-0.0747 -4.9789,-0.65782 -10.0458,-1.29588 z m 195.7125,-10.44335 c 0,-0.99577 4.8491,-2.125 9.125,-2.125 4.1434,0 3.5391,1.62854 -0.875,2.35815 -5.2769,0.87222 -8.25,0.7882 -8.25,-0.23315 z m -169.75,-3.88607 c -4.8347,-1.40738 -7.0579,-3.23893 -3.9315,-3.23893 2.6855,0 11.6815,3.11026 11.6815,4.03874 0,1.22026 -1.2557,1.09067 -7.75,-0.79981 z m -1,-23.80507 c -3.6671,-2.19783 -5.5219,-4.43386 -3.6781,-4.43386 1.2934,0 9.4281,5.25891 9.4281,6.09502 0,1.41919 -1.1786,1.0787 -5.75,-1.66116 z m 9.2838,-27.39997 c -6.5642,-6.58135 -11.6044,-12.29661 -11.2005,-12.70056 0.7345,-0.73445 24.6667,22.45493 24.6667,23.90104 0,1.90738 -2.3031,-0.008 -13.4662,-11.20048 z m 20.2792,1.71611 c -1.9086,-2.8875 -4.2468,-6.44583 -5.196,-7.9074 -1.0545,-1.62387 -1.3397,-2.89596 -0.7332,-3.27077 0.8556,-0.52878 9.4046,11.41018 10.8298,15.12408 1.2375,3.225 -1.7516,0.8182 -4.9006,-3.94591 z m 100.7159,0.12973 c 4.157,-7.10516 14.8572,-21.75916 15.5676,-21.32007 0.4969,0.3071 0.9011,0.64432 0.8983,0.74936 -0.029,1.05933 -14.9288,21.16898 -15.9325,21.50356 -0.9075,0.30247 -1.0798,0.001 -0.5334,-0.93285 z m -41.5289,-14.57113 c 0,-6.52588 2.3544,-25.9015 3.2576,-26.8086 0.9785,-0.98268 0.4778,12.15002 -0.9245,24.25 -0.6298,5.43401 -2.3331,7.30196 -2.3331,2.5586 z m -39.3815,-0.11692 c -0.7807,-1.26315 -6.6185,-17.47789 -6.6185,-18.38308 0,-0.44473 0.3903,-0.8086 0.8673,-0.8086 0.7073,0 3.0813,5.64287 7.8883,18.75 0.5016,1.36773 -1.3308,1.74642 -2.1371,0.44168 z"
       id="path1" />
  </g>
</svg>
